<?xml version="1.0" encoding="UTF-8" standalone="no"?>

<svg
   xmlns="http://www.w3.org/2000/svg"
   viewBox="0 0 29.985816 20.622805">
<g
     id="g6247"
     transform="translate(8.1424385e-4,-4.6811953)"><g
       id="g6249"><path
         d="m 26.161,18.188 c -0.48,-0.097 -0.639,-0.793 -0.627,-1.359 0.013,-0.656 0.246,-1.069 0.642,-1.135 0.356,-0.055 0.699,-0.047 1.025,-0.001 C 27.118,15.345 27.013,15.03 26.88,14.786 26.429,13.956 25.675,14.061 24.808,13.103 22.756,10.832 19.724,7.285 17.582,7.386 14.54,7.528 4.36,12.329 3.844,12.534 3.329,12.739 1.398,11.68 1.37,11.055 1.341,10.428 2.593,8.75 3.475,8.609 4.357,8.466 6.148,8.666 6.632,8.409 7.116,8.153 7.77,7.101 7.77,6.674 7.77,6.248 6.632,5.366 6.632,5.366 c 0,0 -0.427,-0.712 -0.996,-0.684 -0.569,0.03 -1.337,0.74 -1.849,0.684 0.142,0.54 1.28,1.109 1.757,1.085 0.476,-0.022 0.973,-0.458 0.973,-0.458 0,0 0.427,0.169 0.655,0.512 C 7.331,6.743 7.058,7.33 6.603,7.585 6.146,7.842 4.015,7.444 3.188,7.643 c -0.826,0.198 -3.299,2.561 -3.185,3.526 0.113,0.968 2.644,3.187 3.582,3.359 -0.625,1.334 0.029,4.577 -0.254,4.805 -0.285,0.228 -1.366,-0.343 -1.6,0.231 -0.235,0.574 1.315,3.38 1.087,3.751 C 2.59,23.684 2.63,24.526 2.63,24.526 L 5.036,24.509 C 5.008,23.77 4.362,23.287 4.362,23.287 L 4.023,21.805 c 0,0 1.781,-0.938 2.35,-1.85 0.171,0.456 0.968,1.281 1.309,1.396 0.341,0.115 -0.682,0.228 -0.521,0.687 0.16,0.461 3.907,1.816 3.968,2.08 -0.43,0.675 -0.12,1.131 -0.12,1.131 l 2.136,0.055 c -0.256,-1.477 -1.354,-1.95 -1.354,-1.95 l -1.755,-1.923 c 0,0 1.715,-1.955 1.881,-3.943 1.133,1.453 3.592,1.702 3.592,1.702 0,0 -1.855,4.456 -1.979,4.75 -0.122,0.293 0.269,1.364 0.269,1.364 l 2.332,0 C 15.99,24.747 14.793,23.937 14.793,23.937 l 3.244,-4.785 0.826,-0.013 c 0,0 0.91,3.921 0.74,4.29 -0.171,0.369 -0.144,1.422 -0.144,1.422 l 2.39,-0.058 c -0.058,-0.768 -0.796,-1.251 -0.796,-1.251 l 0.055,-4.438 c 0,0 1.311,0.429 2.025,-0.03 -0.261,0.801 -0.43,2.679 -0.287,3.074 0.143,0.395 0.652,0.656 1.052,0.599 0.398,-0.058 2.759,-2.616 3.216,-3.424 0.148,-0.261 0.239,-0.707 0.276,-1.229 -0.152,0.012 -0.306,0.029 -0.454,0.054 -0.312,0.047 -0.575,0.08 -0.775,0.04 z"
         id="path6251"
         style="fill:#f2f2f2" /><path
         d="m 28.932,16.743 c -0.739,-0.512 -1.689,-0.873 -2.702,-0.71 -0.516,0.081 -0.427,1.734 0,1.82 0.427,0.086 1.252,-0.286 1.992,-0.028 0.738,0.255 1.763,1.422 1.763,1.053 -10e-4,-0.368 -0.314,-1.621 -1.053,-2.135 z"
         id="path6253"
         style="fill:#f2f2f2" /></g></g><g
     id="g6255"
     transform="translate(8.1424385e-4,-4.6811953)" /><g
     id="g6257"
     transform="translate(8.1424385e-4,-4.6811953)" /><g
     id="g6259"
     transform="translate(8.1424385e-4,-4.6811953)" /><g
     id="g6261"
     transform="translate(8.1424385e-4,-4.6811953)" /><g
     id="g6263"
     transform="translate(8.1424385e-4,-4.6811953)" /><g
     id="g6265"
     transform="translate(8.1424385e-4,-4.6811953)" /><g
     id="g6267"
     transform="translate(8.1424385e-4,-4.6811953)" /><g
     id="g6269"
     transform="translate(8.1424385e-4,-4.6811953)" /><g
     id="g6271"
     transform="translate(8.1424385e-4,-4.6811953)" /><g
     id="g6273"
     transform="translate(8.1424385e-4,-4.6811953)" /><g
     id="g6275"
     transform="translate(8.1424385e-4,-4.6811953)" /><g
     id="g6277"
     transform="translate(8.1424385e-4,-4.6811953)" /><g
     id="g6279"
     transform="translate(8.1424385e-4,-4.6811953)" /><g
     id="g6281"
     transform="translate(8.1424385e-4,-4.6811953)" /><g
     id="g6283"
     transform="translate(8.1424385e-4,-4.6811953)" /></svg>